<svg xmlns="http://www.w3.org/2000/svg" width="120" height="220" viewBox="0 0 120 220">
  <defs>
    <linearGradient id="blade-legendary" x1="0%" y1="0%" x2="100%" y2="0%">
      <stop offset="0%" stop-color="#FF7043" stop-opacity="0.35"/>
      <stop offset="20%" stop-color="#E8ECF0" stop-opacity="0.95"/>
      <stop offset="40%" stop-color="#FFFFFF" stop-opacity="1"/>
      <stop offset="55%" stop-color="#F0F4F8" stop-opacity="0.9"/>
      <stop offset="75%" stop-color="#D0D8E0" stop-opacity="0.8"/>
      <stop offset="100%" stop-color="#FF7043" stop-opacity="0.35"/>
    </linearGradient>
    <linearGradient id="guard-legendary" x1="0%" y1="0%" x2="0%" y2="100%">
      <stop offset="0%" stop-color="#FF7043"/>
      <stop offset="30%" stop-color="#FFFBE6" stop-opacity="0.5"/>
      <stop offset="70%" stop-color="#FF7043"/>
      <stop offset="100%" stop-color="#FFAB91" stop-opacity="0.7"/>
    </linearGradient>
    <radialGradient id="gem-legendary" cx="35%" cy="30%">
      <stop offset="0%" stop-color="#FFF" stop-opacity="1"/>
      <stop offset="30%" stop-color="#FFF" stop-opacity="0.5"/>
      <stop offset="60%" stop-color="#FF7043"/>
      <stop offset="100%" stop-color="#FF7043" stop-opacity="0.4"/>
    </radialGradient>
    <filter id="glow-legendary" x="-50%" y="-50%" width="200%" height="200%">
      <feGaussianBlur stdDeviation="4.5" result="blur"/>
      <feMerge><feMergeNode in="blur"/><feMergeNode in="SourceGraphic"/></feMerge>
    </filter>
    <filter id="rune-legendary"><feGaussianBlur stdDeviation="1.5" result="b"/><feMerge><feMergeNode in="b"/><feMergeNode in="SourceGraphic"/></feMerge></filter>
    <pattern id="leather-legendary" width="8" height="8" patternUnits="userSpaceOnUse">
      <rect width="8" height="8" fill="#3D2415"/>
      <line x1="0" y1="4" x2="8" y2="4" stroke="#5A3A20" stroke-width="1.5"/>
    </pattern>
  </defs>
  <circle cx="60" cy="100" r="70" fill="none" stroke="#FF7043" stroke-width="0.6" opacity="0.15">
    <animateTransform attributeName="transform" type="rotate" from="0 60 100" to="360 60 100" dur="18s" repeatCount="indefinite"/>
  </circle>
  <circle cx="60" cy="100" r="88" fill="none" stroke="#FF7043" stroke-width="0.6" opacity="0.12" stroke-dasharray="6 3">
    <animateTransform attributeName="transform" type="rotate" from="360 60 100" to="0 60 100" dur="23s" repeatCount="indefinite"/>
  </circle>
  <g filter="url(#glow-legendary)">
    <polygon points="60,4 78,135 60,150 42,135" fill="url(#blade-legendary)" stroke="#FF7043" stroke-width="0.5" stroke-linejoin="round"/>
    <line x1="60" y1="16" x2="60" y2="131" stroke="#FF7043" stroke-width="1.2" opacity="0.3"/>
    <polygon points="60,4 66.3,47.25 60,60.75 57.84,33.75" fill="rgba(255,255,255,0.12)"/>
    <line x1="44" y1="25" x2="42" y2="133" stroke="rgba(255,255,255,0.18)" stroke-width="0.5"/>
    <line x1="76" y1="25" x2="78" y2="133" stroke="rgba(255,255,255,0.1)" stroke-width="0.5"/>
    <polygon points="42,35 38,40 42,45" fill="#FF7043" opacity="0.3"/>
    <polygon points="78,35 82,40 78,45" fill="#FF7043" opacity="0.3"/>
    <polygon points="42,63 38,68 42,73" fill="#FF7043" opacity="0.3"/>
    <polygon points="78,63 82,68 78,73" fill="#FF7043" opacity="0.3"/>
    <polygon points="42,91 38,96 42,101" fill="#FF7043" opacity="0.3"/>
    <polygon points="78,91 82,96 78,101" fill="#FF7043" opacity="0.3"/>
    <text x="60" y="35" text-anchor="middle" font-size="8" fill="#FFAB91" font-family="serif" filter="url(#rune-legendary)" opacity="0.7">✦</text>
    <text x="60" y="57" text-anchor="middle" font-size="8" fill="#FFAB91" font-family="serif" filter="url(#rune-legendary)" opacity="0.7">◈</text>
    <text x="60" y="79" text-anchor="middle" font-size="8" fill="#FFAB91" font-family="serif" filter="url(#rune-legendary)" opacity="0.7">✦</text>
  </g>
  <path d="M8,150 C8,145 20,145 28,147 L92,147 C100,145 112,145 112,150 L112,155 C112,160 100,161 92,159 L28,159 C20,161 8,160 8,155 Z" fill="url(#guard-legendary)" stroke="#FF7043" stroke-width="0.4"/>
  <circle cx="18" cy="153" r="3" fill="#FF7043" opacity="0.8"><animate attributeName="opacity" values="0.8;0.3;0.8" dur="2s" repeatCount="indefinite"/></circle>
  <circle cx="102" cy="153" r="3" fill="#FF7043" opacity="0.8"><animate attributeName="opacity" values="0.8;0.3;0.8" dur="2s" repeatCount="indefinite" begin="1s"/></circle>
  <rect x="48" y="161" width="24" height="38" rx="2" fill="url(#leather-legendary)"/>
  <line x1="50" y1="166" x2="70" y2="166" stroke="#8B6914" stroke-width="1" opacity="0.4"/>
  <line x1="50" y1="173" x2="70" y2="173" stroke="#8B6914" stroke-width="1" opacity="0.4"/>
  <line x1="50" y1="180" x2="70" y2="180" stroke="#8B6914" stroke-width="1" opacity="0.4"/>
  <line x1="50" y1="187" x2="70" y2="187" stroke="#8B6914" stroke-width="1" opacity="0.4"/>
  <line x1="50" y1="194" x2="70" y2="194" stroke="#8B6914" stroke-width="1" opacity="0.4"/>
  <ellipse cx="60" cy="203" rx="12" ry="10" fill="url(#guard-legendary)" stroke="#FF7043" stroke-width="0.4"/>
  <circle cx="60" cy="202" r="5" fill="url(#gem-legendary)"><animate attributeName="r" values="5;5.5;5" dur="3s" repeatCount="indefinite"/></circle>
  <circle cx="58" cy="200" r="1.2" fill="white" opacity="0.8"><animate attributeName="opacity" values="0.8;0.3;0.8" dur="1.8s" repeatCount="indefinite"/></circle>
  <circle cx="30" cy="20" r="1.5" fill="#FFAB91" opacity="0"><animate attributeName="opacity" values="0;0.6;0" dur="2s" repeatCount="indefinite" begin="0s"/><animate attributeName="cy" values="20;5" dur="2s" repeatCount="indefinite" begin="0s"/></circle>
  <circle cx="50" cy="45" r="1.5" fill="#FFAB91" opacity="0"><animate attributeName="opacity" values="0;0.6;0" dur="2.5s" repeatCount="indefinite" begin="0.7s"/><animate attributeName="cy" values="45;30" dur="2.5s" repeatCount="indefinite" begin="0.7s"/></circle>
  <circle cx="70" cy="70" r="1.5" fill="#FFAB91" opacity="0"><animate attributeName="opacity" values="0;0.6;0" dur="3s" repeatCount="indefinite" begin="1.4s"/><animate attributeName="cy" values="70;55" dur="3s" repeatCount="indefinite" begin="1.4s"/></circle>
  <circle cx="90" cy="95" r="1.5" fill="#FFAB91" opacity="0"><animate attributeName="opacity" values="0;0.6;0" dur="3.5s" repeatCount="indefinite" begin="2.0999999999999996s"/><animate attributeName="cy" values="95;80" dur="3.5s" repeatCount="indefinite" begin="2.0999999999999996s"/></circle>
</svg>