<svg xmlns="http://www.w3.org/2000/svg" width="120" height="220" viewBox="0 0 120 220">
  <defs>
    <linearGradient id="blade-transcend" x1="0%" y1="0%" x2="100%" y2="0%">
      <stop offset="0%" stop-color="#EC407A" stop-opacity="0.35"/>
      <stop offset="20%" stop-color="#E8ECF0" stop-opacity="0.95"/>
      <stop offset="40%" stop-color="#FFFFFF" stop-opacity="1"/>
      <stop offset="55%" stop-color="#F0F4F8" stop-opacity="0.9"/>
      <stop offset="75%" stop-color="#D0D8E0" stop-opacity="0.8"/>
      <stop offset="100%" stop-color="#EC407A" stop-opacity="0.35"/>
    </linearGradient>
    <linearGradient id="guard-transcend" x1="0%" y1="0%" x2="0%" y2="100%">
      <stop offset="0%" stop-color="#EC407A"/>
      <stop offset="30%" stop-color="#FFFBE6" stop-opacity="0.5"/>
      <stop offset="70%" stop-color="#EC407A"/>
      <stop offset="100%" stop-color="#F48FB1" stop-opacity="0.7"/>
    </linearGradient>
    <radialGradient id="gem-transcend" cx="35%" cy="30%">
      <stop offset="0%" stop-color="#FFF" stop-opacity="1"/>
      <stop offset="30%" stop-color="#FFF" stop-opacity="0.5"/>
      <stop offset="60%" stop-color="#EC407A"/>
      <stop offset="100%" stop-color="#EC407A" stop-opacity="0.4"/>
    </radialGradient>
    <filter id="glow-transcend" x="-50%" y="-50%" width="200%" height="200%">
      <feGaussianBlur stdDeviation="7.5" result="blur"/>
      <feMerge><feMergeNode in="blur"/><feMergeNode in="SourceGraphic"/></feMerge>
    </filter>
    <filter id="rune-transcend"><feGaussianBlur stdDeviation="1.5" result="b"/><feMerge><feMergeNode in="b"/><feMergeNode in="SourceGraphic"/></feMerge></filter>
    <pattern id="leather-transcend" width="8" height="8" patternUnits="userSpaceOnUse">
      <rect width="8" height="8" fill="#3D2415"/>
      <line x1="0" y1="4" x2="8" y2="4" stroke="#5A3A20" stroke-width="1.5"/>
    </pattern>
  </defs>
  <circle cx="60" cy="100" r="70" fill="none" stroke="#EC407A" stroke-width="0.6" opacity="0.15">
    <animateTransform attributeName="transform" type="rotate" from="0 60 100" to="360 60 100" dur="18s" repeatCount="indefinite"/>
  </circle>
  <circle cx="60" cy="100" r="88" fill="none" stroke="#EC407A" stroke-width="0.6" opacity="0.12" stroke-dasharray="6 3">
    <animateTransform attributeName="transform" type="rotate" from="360 60 100" to="0 60 100" dur="23s" repeatCount="indefinite"/>
  </circle>
  <circle cx="60" cy="100" r="106" fill="none" stroke="#EC407A" stroke-width="0.6" opacity="0.09">
    <animateTransform attributeName="transform" type="rotate" from="0 60 100" to="360 60 100" dur="28s" repeatCount="indefinite"/>
  </circle>
  <g filter="url(#glow-transcend)">
    <polygon points="60,4 80,140 60,155 40,140" fill="url(#blade-transcend)" stroke="#EC407A" stroke-width="0.5" stroke-linejoin="round"/>
    <line x1="60" y1="16" x2="60" y2="136" stroke="#EC407A" stroke-width="1.2" opacity="0.3"/>
    <polygon points="60,4 67,49 60,63 57.6,35" fill="rgba(255,255,255,0.12)"/>
    <line x1="42" y1="25" x2="40" y2="138" stroke="rgba(255,255,255,0.18)" stroke-width="0.5"/>
    <line x1="78" y1="25" x2="80" y2="138" stroke="rgba(255,255,255,0.1)" stroke-width="0.5"/>
    <polygon points="40,35 36,40 40,45" fill="#EC407A" opacity="0.3"/>
    <polygon points="80,35 84,40 80,45" fill="#EC407A" opacity="0.3"/>
    <polygon points="40,63 36,68 40,73" fill="#EC407A" opacity="0.3"/>
    <polygon points="80,63 84,68 80,73" fill="#EC407A" opacity="0.3"/>
    <polygon points="40,91 36,96 40,101" fill="#EC407A" opacity="0.3"/>
    <polygon points="80,91 84,96 80,101" fill="#EC407A" opacity="0.3"/>
    <text x="60" y="35" text-anchor="middle" font-size="8" fill="#F48FB1" font-family="serif" filter="url(#rune-transcend)" opacity="0.7">✦</text>
    <text x="60" y="57" text-anchor="middle" font-size="8" fill="#F48FB1" font-family="serif" filter="url(#rune-transcend)" opacity="0.7">◈</text>
    <text x="60" y="79" text-anchor="middle" font-size="8" fill="#F48FB1" font-family="serif" filter="url(#rune-transcend)" opacity="0.7">✦</text>
    <text x="60" y="101" text-anchor="middle" font-size="8" fill="#F48FB1" font-family="serif" filter="url(#rune-transcend)" opacity="0.7">⚜</text>
    <text x="60" y="123" text-anchor="middle" font-size="8" fill="#F48FB1" font-family="serif" filter="url(#rune-transcend)" opacity="0.7">✧</text>
  </g>
  <path d="M8,155 C8,150 20,150 28,152 L92,152 C100,150 112,150 112,155 L112,160 C112,165 100,166 92,164 L28,164 C20,166 8,165 8,160 Z" fill="url(#guard-transcend)" stroke="#EC407A" stroke-width="0.4"/>
  <circle cx="18" cy="158" r="3" fill="#EC407A" opacity="0.8"><animate attributeName="opacity" values="0.8;0.3;0.8" dur="2s" repeatCount="indefinite"/></circle>
  <circle cx="102" cy="158" r="3" fill="#EC407A" opacity="0.8"><animate attributeName="opacity" values="0.8;0.3;0.8" dur="2s" repeatCount="indefinite" begin="1s"/></circle>
  <rect x="48" y="166" width="24" height="38" rx="2" fill="url(#leather-transcend)"/>
  <line x1="50" y1="171" x2="70" y2="171" stroke="#8B6914" stroke-width="1" opacity="0.4"/>
  <line x1="50" y1="178" x2="70" y2="178" stroke="#8B6914" stroke-width="1" opacity="0.4"/>
  <line x1="50" y1="185" x2="70" y2="185" stroke="#8B6914" stroke-width="1" opacity="0.4"/>
  <line x1="50" y1="192" x2="70" y2="192" stroke="#8B6914" stroke-width="1" opacity="0.4"/>
  <line x1="50" y1="199" x2="70" y2="199" stroke="#8B6914" stroke-width="1" opacity="0.4"/>
  <ellipse cx="60" cy="208" rx="12" ry="10" fill="url(#guard-transcend)" stroke="#EC407A" stroke-width="0.4"/>
  <circle cx="60" cy="207" r="5" fill="url(#gem-transcend)"><animate attributeName="r" values="5;5.5;5" dur="3s" repeatCount="indefinite"/></circle>
  <circle cx="58" cy="205" r="1.2" fill="white" opacity="0.8"><animate attributeName="opacity" values="0.8;0.3;0.8" dur="1.8s" repeatCount="indefinite"/></circle>
  <circle cx="30" cy="20" r="1.5" fill="#F48FB1" opacity="0"><animate attributeName="opacity" values="0;0.6;0" dur="2s" repeatCount="indefinite" begin="0s"/><animate attributeName="cy" values="20;5" dur="2s" repeatCount="indefinite" begin="0s"/></circle>
  <circle cx="50" cy="45" r="1.5" fill="#F48FB1" opacity="0"><animate attributeName="opacity" values="0;0.6;0" dur="2.5s" repeatCount="indefinite" begin="0.7s"/><animate attributeName="cy" values="45;30" dur="2.5s" repeatCount="indefinite" begin="0.7s"/></circle>
  <circle cx="70" cy="70" r="1.5" fill="#F48FB1" opacity="0"><animate attributeName="opacity" values="0;0.6;0" dur="3s" repeatCount="indefinite" begin="1.4s"/><animate attributeName="cy" values="70;55" dur="3s" repeatCount="indefinite" begin="1.4s"/></circle>
  <circle cx="90" cy="95" r="1.5" fill="#F48FB1" opacity="0"><animate attributeName="opacity" values="0;0.6;0" dur="3.5s" repeatCount="indefinite" begin="2.0999999999999996s"/><animate attributeName="cy" values="95;80" dur="3.5s" repeatCount="indefinite" begin="2.0999999999999996s"/></circle>
</svg>